
<svg xmlns="http://www.w3.org/2000/svg" xmlns:xlink="http://www.w3.org/1999/xlink" width="256pt" height="256pt" viewBox="0 0 256 256" version="1.1">
<g>
<path style=" stroke:none;fill-rule:nonzero;fill:rgb(0%,0%,0%);fill-opacity:1;" d="M 208.359375 198.484375 C 182.089844 198.484375 160.71875 219.855469 160.71875 246.125 L 160.71875 255.851562 L 256 255.851562 L 256 246.125 C 256 219.855469 234.628906 198.484375 208.359375 198.484375 Z M 176.152344 240.847656 C 178.679688 225.351562 192.160156 213.488281 208.359375 213.488281 C 224.558594 213.488281 238.039062 225.351562 240.570312 240.847656 Z M 176.152344 240.847656 "/>
<path style=" stroke:none;fill-rule:nonzero;fill:rgb(0%,0%,0%);fill-opacity:1;" d="M 193.535156 72.835938 L 188.054688 78.3125 L 145.558594 35.816406 L 151.039062 30.335938 L 120.851562 0.148438 L 62.394531 58.601562 L 92.582031 88.789062 L 98.0625 83.308594 L 103.199219 88.445312 L 0 191.644531 L 32.226562 223.871094 L 135.425781 120.671875 L 140.5625 125.808594 L 135.082031 131.289062 L 165.269531 161.476562 L 223.722656 103.023438 Z M 92.582031 67.570312 L 83.613281 58.601562 L 120.847656 21.367188 L 129.820312 30.335938 Z M 32.226562 202.652344 L 21.21875 191.644531 L 113.808594 99.054688 L 124.816406 110.0625 Z M 108.671875 72.699219 L 134.949219 46.425781 L 177.445312 88.921875 L 151.171875 115.199219 Z M 156.300781 131.289062 L 193.535156 94.050781 L 202.503906 103.023438 L 165.269531 140.257812 Z M 156.300781 131.289062 "/>
</g>
</svg>
