
<svg xmlns="http://www.w3.org/2000/svg" xmlns:xlink="http://www.w3.org/1999/xlink" width="256pt" height="256pt" viewBox="0 0 256 256" version="1.1">
<g>
<path style=" stroke:none;fill-rule:nonzero;fill:rgb(0%,0%,0%);fill-opacity:1;" d="M 200.546875 19.425781 L 174.339844 4.324219 L 148.136719 19.425781 L 121.929688 4.324219 L 95.722656 19.425781 L 62.011719 0 L 62.011719 201.304688 L 21.742188 201.304688 L 21.742188 228.359375 C 21.742188 243.601562 34.140625 256 49.382812 256 L 206.617188 256 C 221.859375 256 234.261719 243.601562 234.261719 228.359375 L 234.261719 0 Z M 49.382812 240.988281 C 42.417969 240.988281 36.75 235.324219 36.75 228.359375 L 36.75 216.316406 L 178.976562 216.316406 L 178.976562 228.359375 C 178.976562 232.90625 180.082031 237.203125 182.035156 240.988281 Z M 206.617188 240.988281 C 199.65625 240.988281 193.988281 235.324219 193.988281 228.359375 L 193.988281 201.304688 L 77.023438 201.304688 L 77.023438 25.972656 L 95.722656 36.75 L 121.929688 21.648438 L 148.136719 36.75 L 174.339844 21.648438 L 200.546875 36.75 L 219.25 25.972656 L 219.25 228.359375 C 219.25 235.324219 213.582031 240.988281 206.617188 240.988281 Z M 206.617188 240.988281 "/>
<path style=" stroke:none;fill-rule:nonzero;fill:rgb(0%,0%,0%);fill-opacity:1;" d="M 92.03125 67.746094 L 204.234375 67.746094 L 204.234375 82.757812 L 92.03125 82.757812 Z M 92.03125 67.746094 "/>
<path style=" stroke:none;fill-rule:nonzero;fill:rgb(0%,0%,0%);fill-opacity:1;" d="M 92.03125 96.371094 L 204.234375 96.371094 L 204.234375 111.382812 L 92.03125 111.382812 Z M 92.03125 96.371094 "/>
<path style=" stroke:none;fill-rule:nonzero;fill:rgb(0%,0%,0%);fill-opacity:1;" d="M 92.03125 124.996094 L 148.132812 124.996094 L 148.132812 140.007812 L 92.03125 140.007812 Z M 92.03125 124.996094 "/>
</g>
</svg>
