
<svg xmlns="http://www.w3.org/2000/svg" xmlns:xlink="http://www.w3.org/1999/xlink" width="256pt" height="256pt" viewBox="0 0 256 256" version="1.1">
<g>
<path style=" stroke:none;fill-rule:nonzero;fill:rgb(0%,0%,0%);fill-opacity:1;" d="M 0 0 L 0 256 L 256 256 L 256 0 Z M 120.5 241 L 15 241 L 15 135.5 L 120.5 135.5 Z M 120.5 120.5 L 15 120.5 L 15 15 L 120.5 15 Z M 241 241 L 135.5 241 L 135.5 135.5 L 241 135.5 Z M 241 120.5 L 135.5 120.5 L 135.5 15 L 241 15 Z M 241 120.5 "/>
<path style=" stroke:none;fill-rule:nonzero;fill:rgb(0%,0%,0%);fill-opacity:1;" d="M 75.25 60.25 L 75.25 42.75 L 60.25 42.75 L 60.25 60.25 L 42.75 60.25 L 42.75 75.25 L 60.25 75.25 L 60.25 92.75 L 75.25 92.75 L 75.25 75.25 L 92.75 75.25 L 92.75 60.25 Z M 75.25 60.25 "/>
<path style=" stroke:none;fill-rule:nonzero;fill:rgb(0%,0%,0%);fill-opacity:1;" d="M 90.730469 175.875 L 80.125 165.269531 L 67.75 177.644531 L 55.375 165.269531 L 44.769531 175.875 L 57.144531 188.25 L 44.769531 200.625 L 55.375 211.230469 L 67.75 198.855469 L 80.125 211.230469 L 90.730469 200.625 L 78.355469 188.25 Z M 90.730469 175.875 "/>
<path style=" stroke:none;fill-rule:nonzero;fill:rgb(0%,0%,0%);fill-opacity:1;" d="M 163.25 60.25 L 213.25 60.25 L 213.25 75.25 L 163.25 75.25 Z M 163.25 60.25 "/>
<path style=" stroke:none;fill-rule:nonzero;fill:rgb(0%,0%,0%);fill-opacity:1;" d="M 163.25 196 L 213.25 196 L 213.25 211 L 163.25 211 Z M 163.25 196 "/>
<path style=" stroke:none;fill-rule:nonzero;fill:rgb(0%,0%,0%);fill-opacity:1;" d="M 163.25 166 L 213.25 166 L 213.25 181 L 163.25 181 Z M 163.25 166 "/>
</g>
</svg>
