
<svg xmlns="http://www.w3.org/2000/svg" xmlns:xlink="http://www.w3.org/1999/xlink" width="256pt" height="256pt" viewBox="0 0 256 256" version="1.1">
<g>
<path style=" stroke:none;fill-rule:nonzero;fill:rgb(0%,0%,0%);fill-opacity:1;" d="M 248.5 231 C 238.699219 231 233.476562 234.464844 229.277344 237.25 C 225.875 239.507812 223.625 241 218.347656 241 C 213.070312 241 210.824219 239.507812 207.417969 237.25 C 203.21875 234.464844 197.996094 231 188.195312 231 C 178.402344 231 173.179688 234.464844 168.984375 237.25 C 165.582031 239.507812 163.335938 241 158.066406 241 C 152.804688 241 150.558594 239.507812 147.164062 237.253906 C 142.96875 234.46875 137.75 231 127.960938 231 C 118.167969 231 112.945312 234.464844 108.75 237.253906 C 105.351562 239.507812 103.105469 241 97.839844 241 C 92.574219 241 90.328125 239.507812 86.933594 237.253906 C 82.738281 234.46875 77.519531 231 67.726562 231 C 57.933594 231 52.714844 234.46875 48.519531 237.253906 C 45.121094 239.507812 42.878906 241 37.613281 241 C 32.347656 241 30.105469 239.507812 26.707031 237.253906 C 22.511719 234.46875 17.292969 231 7.5 231 C 3.359375 231 0 234.359375 0 238.5 C 0 242.640625 3.359375 246 7.5 246 C 12.765625 246 15.007812 247.492188 18.40625 249.746094 C 22.601562 252.53125 27.820312 256 37.613281 256 C 47.40625 256 52.625 252.53125 56.820312 249.746094 C 60.21875 247.492188 62.460938 246 67.726562 246 C 72.992188 246 75.234375 247.492188 78.632812 249.746094 C 82.828125 252.53125 88.046875 256 97.839844 256 C 107.632812 256 112.851562 252.535156 117.046875 249.746094 C 120.449219 247.492188 122.691406 246 127.960938 246 C 133.222656 246 135.464844 247.492188 138.863281 249.746094 C 143.054688 252.53125 148.273438 256 158.066406 256 C 167.859375 256 173.082031 252.535156 177.277344 249.75 C 180.679688 247.492188 182.925781 246 188.195312 246 C 193.472656 246 195.722656 247.492188 199.125 249.75 C 203.324219 252.535156 208.546875 256 218.347656 256 C 228.148438 256 233.371094 252.535156 237.570312 249.75 C 240.972656 247.492188 243.222656 246 248.5 246 C 252.640625 246 256 242.640625 256 238.5 C 256 234.359375 252.640625 231 248.5 231 Z M 248.5 231 "/>
<path style=" stroke:none;fill-rule:nonzero;fill:rgb(0%,0%,0%);fill-opacity:1;" d="M 135.5 73.5 C 135.5 77.640625 132.140625 81 128 81 C 123.859375 81 120.5 77.640625 120.5 73.5 C 120.5 69.359375 123.859375 66 128 66 C 132.140625 66 135.5 69.359375 135.5 73.5 Z M 135.5 73.5 "/>
<path style=" stroke:none;fill-rule:nonzero;fill:rgb(0%,0%,0%);fill-opacity:1;" d="M 165.5 73.5 C 165.5 77.640625 162.140625 81 158 81 C 153.859375 81 150.5 77.640625 150.5 73.5 C 150.5 69.359375 153.859375 66 158 66 C 162.140625 66 165.5 69.359375 165.5 73.5 Z M 165.5 73.5 "/>
<path style=" stroke:none;fill-rule:nonzero;fill:rgb(0%,0%,0%);fill-opacity:1;" d="M 105.5 73.5 C 105.5 77.640625 102.140625 81 98 81 C 93.859375 81 90.5 77.640625 90.5 73.5 C 90.5 69.359375 93.859375 66 98 66 C 102.140625 66 105.5 69.359375 105.5 73.5 Z M 105.5 73.5 "/>
<path style=" stroke:none;fill-rule:nonzero;fill:rgb(0%,0%,0%);fill-opacity:1;" d="M 7.5 211 C 12.765625 211 15.007812 212.492188 18.40625 214.746094 C 22.601562 217.53125 27.820312 221 37.613281 221 C 47.40625 221 52.625 217.53125 56.820312 214.746094 C 60.21875 212.492188 62.460938 211 67.726562 211 C 72.992188 211 75.234375 212.492188 78.632812 214.746094 C 82.828125 217.53125 88.046875 221 97.839844 221 C 107.632812 221 112.851562 217.535156 117.046875 214.746094 C 120.449219 212.492188 122.691406 211 127.960938 211 C 133.222656 211 135.464844 212.492188 138.863281 214.746094 C 143.054688 217.53125 148.273438 221 158.066406 221 C 167.859375 221 173.082031 217.535156 177.277344 214.75 C 180.679688 212.492188 182.925781 211 188.195312 211 C 193.472656 211 195.722656 212.492188 199.125 214.75 C 203.324219 217.535156 208.546875 221 218.347656 221 C 228.148438 221 233.371094 217.535156 237.570312 214.75 C 240.972656 212.492188 243.222656 211 248.5 211 C 252.640625 211 256 207.640625 256 203.5 C 256 199.359375 252.640625 196 248.5 196 C 238.699219 196 233.476562 199.464844 229.277344 202.25 C 225.871094 204.507812 223.625 206 218.347656 206 C 213.070312 206 210.820312 204.507812 207.417969 202.25 C 205.007812 200.648438 202.25 198.828125 198.488281 197.566406 L 220.007812 141.175781 C 221.457031 137.375 219.613281 133.113281 215.855469 131.566406 L 190.5 121.125 L 190.5 43.5 C 190.5 39.359375 187.140625 36 183 36 L 160.5 36 L 160.5 7.5 C 160.5 3.359375 157.140625 0 153 0 L 103 0 C 98.859375 0 95.5 3.359375 95.5 7.5 L 95.5 36 L 73 36 C 68.859375 36 65.5 39.359375 65.5 43.5 L 65.5 121.125 L 40.144531 131.566406 C 36.386719 133.113281 34.546875 137.367188 35.988281 141.167969 L 57.445312 197.566406 C 53.683594 198.828125 50.929688 200.652344 48.519531 202.253906 C 45.121094 204.507812 42.878906 206 37.613281 206 C 32.347656 206 30.105469 204.507812 26.707031 202.253906 C 22.511719 199.46875 17.292969 196 7.5 196 C 3.359375 196 0 199.359375 0 203.5 C 0 207.640625 3.359375 211 7.5 211 Z M 182.886719 196.382812 C 176.375 197.351562 172.347656 200.019531 168.984375 202.25 C 165.582031 204.507812 163.335938 206 158.066406 206 C 152.804688 206 150.558594 204.507812 147.164062 202.253906 C 144.203125 200.289062 140.726562 197.988281 135.5 196.800781 L 135.5 114.699219 L 203.386719 142.652344 Z M 110.5 15 L 145.5 15 L 145.5 36 L 110.5 36 Z M 80.5 51 L 175.5 51 L 175.5 114.949219 L 130.855469 96.566406 C 129.027344 95.8125 126.972656 95.8125 125.144531 96.566406 L 80.5 114.949219 Z M 120.5 114.699219 L 120.5 196.78125 C 115.226562 197.964844 111.726562 200.277344 108.75 202.25 C 105.351562 204.507812 103.105469 206 97.839844 206 C 92.574219 206 90.328125 204.507812 86.933594 202.253906 C 83.570312 200.019531 79.546875 197.355469 73.042969 196.382812 L 52.605469 142.65625 Z M 120.5 114.699219 "/>
</g>
</svg>
