
<svg xmlns="http://www.w3.org/2000/svg" xmlns:xlink="http://www.w3.org/1999/xlink" width="256pt" height="256pt" viewBox="0 0 256 256" version="1.1">
<g>
<path style=" stroke:none;fill-rule:nonzero;fill:rgb(0%,0%,0%);fill-opacity:1;" d="M 218.5 188.5 L 218.5 37.128906 C 218.5 16.65625 201.84375 0 181.371094 0 L 26 0 L 26 0.0078125 C 11.640625 0.140625 0 11.859375 0 26.25 L 0 67.5 L 37.5 67.5 L 37.5 84.128906 C 16.246094 87.710938 0 106.242188 0 128.5 C 0 141.796875 5.800781 153.765625 15 162.011719 L 15 225.015625 L 37.5 210.015625 L 37.5 218.871094 C 37.5 239.34375 54.15625 256 74.628906 256 L 230 256 L 230 255.992188 C 244.359375 255.859375 256 244.140625 256 229.75 L 256 188.5 Z M 15 26.25 C 15 20.046875 20.046875 15 26.25 15 C 32.453125 15 37.5 20.046875 37.5 26.25 L 37.5 52.5 L 15 52.5 Z M 45 98.5 C 61.542969 98.5 75 111.957031 75 128.5 C 75 145.042969 61.542969 158.5 45 158.5 C 28.457031 158.5 15 145.042969 15 128.5 C 15 111.957031 28.457031 98.5 45 98.5 Z M 30 170.925781 C 39.425781 174.269531 50.074219 174.449219 60 170.925781 L 60 196.988281 L 45 186.988281 L 30 196.988281 Z M 52.5 218.871094 L 52.5 210.011719 L 75 225.011719 L 75 162.011719 C 84.199219 153.765625 90 141.796875 90 128.5 C 90 106.242188 73.753906 87.710938 52.5 84.128906 C 52.5 77.871094 52.5 33.398438 52.5 26.25 C 52.5 22.226562 51.585938 18.410156 49.960938 15 L 181.371094 15 C 193.574219 15 203.5 24.925781 203.5 37.128906 L 203.5 229.75 C 203.5 233.773438 204.414062 237.589844 206.039062 241 L 74.628906 241 C 62.425781 241 52.5 231.074219 52.5 218.871094 Z M 241 229.75 C 241 235.953125 235.953125 241 229.75 241 C 223.546875 241 218.5 235.953125 218.5 229.75 L 218.5 203.5 L 241 203.5 Z M 241 229.75 "/>
<path style=" stroke:none;fill-rule:nonzero;fill:rgb(0%,0%,0%);fill-opacity:1;" d="M 112.5 45 L 180 45 L 180 60 L 112.5 60 Z M 112.5 45 "/>
<path style=" stroke:none;fill-rule:nonzero;fill:rgb(0%,0%,0%);fill-opacity:1;" d="M 112.5 83.5 L 180 83.5 L 180 98.5 L 112.5 98.5 Z M 112.5 83.5 "/>
<path style=" stroke:none;fill-rule:nonzero;fill:rgb(0%,0%,0%);fill-opacity:1;" d="M 112.5 121 L 180 121 L 180 136 L 112.5 136 Z M 112.5 121 "/>
<path style=" stroke:none;fill-rule:nonzero;fill:rgb(0%,0%,0%);fill-opacity:1;" d="M 112.5 158.5 L 180 158.5 L 180 173.5 L 112.5 173.5 Z M 112.5 158.5 "/>
<path style=" stroke:none;fill-rule:nonzero;fill:rgb(0%,0%,0%);fill-opacity:1;" d="M 112.5 196 L 180 196 L 180 211 L 112.5 211 Z M 112.5 196 "/>
</g>
</svg>
