
<svg xmlns="http://www.w3.org/2000/svg" xmlns:xlink="http://www.w3.org/1999/xlink" width="256pt" height="256pt" viewBox="0 0 256 256" version="1.1">
<g>
<path style=" stroke:none;fill-rule:nonzero;fill:rgb(0%,0%,0%);fill-opacity:1;" d="M 142.144531 128 L 253.070312 17.070312 C 256.976562 13.167969 256.976562 6.835938 253.070312 2.929688 C 249.164062 -0.976562 242.832031 -0.976562 238.929688 2.929688 L 128 113.859375 L 17.070312 2.929688 C 13.164062 -0.976562 6.835938 -0.976562 2.929688 2.929688 C -0.976562 6.835938 -0.976562 13.167969 2.929688 17.070312 L 113.855469 128 L 2.929688 238.929688 C -0.976562 242.835938 -0.976562 249.167969 2.929688 253.070312 C 4.882812 255.023438 7.441406 256 10 256 C 12.558594 256 15.117188 255.023438 17.070312 253.070312 L 128 142.144531 L 238.929688 253.070312 C 240.878906 255.023438 243.441406 256 246 256 C 248.558594 256 251.117188 255.023438 253.070312 253.070312 C 256.976562 249.164062 256.976562 242.835938 253.070312 238.929688 Z M 142.144531 128 "/>
</g>
</svg>
