
<svg xmlns="http://www.w3.org/2000/svg" xmlns:xlink="http://www.w3.org/1999/xlink" width="239pt" height="239pt" viewBox="0 0 239 239" version="1.1">
<g>
<path style=" stroke:none;fill-rule:nonzero;fill:rgb(0%,0%,0%);fill-opacity:1;" d="M 215.796875 -1 L 49.460938 -1 C 45.757812 -1 42.757812 2 42.757812 5.703125 L 42.757812 34.007812 L 23.203125 34.007812 C 19.503906 34.007812 16.503906 37.007812 16.503906 40.660156 L 16.503906 233.296875 C 16.503906 236.648438 18.953125 239.449219 22.203125 239.898438 L 22.203125 240.050781 L 180.789062 240.050781 C 184.488281 240.050781 187.488281 237.050781 187.488281 233.347656 L 187.488281 222.496094 L 215.84375 222.496094 C 219.546875 222.496094 222.546875 219.496094 222.546875 215.796875 L 222.546875 5.703125 C 222.496094 2 219.496094 -1 215.796875 -1 Z M 143.679688 77.816406 L 143.679688 56.8125 L 164.683594 77.816406 Z M 137.027344 91.117188 L 174.136719 91.117188 L 174.136719 226.597656 L 29.90625 226.597656 L 29.90625 47.359375 L 130.328125 47.359375 L 130.328125 84.417969 C 130.328125 88.117188 133.328125 91.117188 137.027344 91.117188 Z M 56.160156 34.058594 L 56.160156 12.351562 L 209.144531 12.351562 L 209.144531 209.195312 L 187.488281 209.195312 L 187.488281 84.519531 C 187.4375 82.667969 186.738281 81.015625 185.488281 79.765625 L 141.730469 36.007812 C 140.429688 34.707031 138.777344 34.007812 137.027344 34.007812 L 56.160156 34.007812 Z M 56.160156 34.058594 "/>
<path style=" stroke:none;fill-rule:nonzero;fill:rgb(0%,0%,0%);fill-opacity:1;" d="M 51.511719 119.476562 C 51.511719 123.175781 54.511719 126.175781 58.210938 126.175781 L 145.78125 126.175781 C 149.480469 126.175781 152.480469 123.175781 152.480469 119.476562 C 152.480469 115.773438 149.480469 112.773438 145.78125 112.773438 L 58.210938 112.773438 C 54.511719 112.773438 51.511719 115.773438 51.511719 119.476562 Z M 51.511719 119.476562 "/>
<path style=" stroke:none;fill-rule:nonzero;fill:rgb(0%,0%,0%);fill-opacity:1;" d="M 145.78125 147.832031 L 58.210938 147.832031 C 54.511719 147.832031 51.511719 150.832031 51.511719 154.53125 C 51.511719 158.234375 54.511719 161.234375 58.210938 161.234375 L 145.78125 161.234375 C 149.480469 161.234375 152.480469 158.234375 152.480469 154.53125 C 152.480469 150.832031 149.480469 147.832031 145.78125 147.832031 Z M 145.78125 147.832031 "/>
<path style=" stroke:none;fill-rule:nonzero;fill:rgb(0%,0%,0%);fill-opacity:1;" d="M 145.78125 182.789062 L 58.210938 182.789062 C 54.511719 182.789062 51.511719 185.789062 51.511719 189.488281 C 51.511719 193.191406 54.511719 196.191406 58.210938 196.191406 L 145.78125 196.191406 C 149.480469 196.191406 152.480469 193.191406 152.480469 189.488281 C 152.480469 185.789062 149.480469 182.789062 145.78125 182.789062 Z M 145.78125 182.789062 "/>
</g>
</svg>
