
<svg xmlns="http://www.w3.org/2000/svg" xmlns:xlink="http://www.w3.org/1999/xlink" width="256pt" height="256pt" viewBox="0 0 256 256" version="1.1">
<g>
<path style=" stroke:none;fill-rule:nonzero;fill:rgb(0%,0%,0%);fill-opacity:1;" d="M 244.246094 195.785156 L 131.75 195.785156 L 131.75 182.003906 L 206.746094 182.003906 C 210.890625 182.003906 214.246094 178.644531 214.246094 174.503906 C 214.246094 151.789062 209.652344 130.929688 200.585938 112.5 C 186.128906 83.101562 159.996094 60.421875 131.75 48.8125 C 131.75 48.386719 131.75 49.742188 131.75 7.507812 C 131.75 2.175781 126.328125 -1.457031 121.398438 0.570312 L 76.398438 19.070312 C 70.246094 21.597656 70.203125 30.328125 76.332031 32.914062 L 116.75 49.980469 L 116.75 51.683594 L 35.5625 170.265625 C 32.160156 175.234375 35.726562 182.003906 41.75 182.003906 L 116.75 182.003906 L 116.75 195.785156 L 11.753906 195.785156 C 7.167969 195.785156 3.648438 199.871094 4.335938 204.410156 L 11.195312 249.625 C 11.753906 253.289062 14.902344 256 18.613281 256 L 186.257812 256 C 216.878906 256 244.261719 235.398438 251.539062 205.03125 C 252.667969 200.328125 249.097656 195.785156 244.246094 195.785156 Z M 199.0625 167.003906 L 142.832031 167.003906 C 163.203125 142.1875 167.617188 108.121094 153.820312 78.890625 C 181.675781 100.296875 197.238281 130.140625 199.0625 167.003906 Z M 131.75 156.855469 L 131.75 71.671875 C 151.808594 96.6875 151.777344 131.875 131.75 156.855469 Z M 98.75 26.097656 L 116.75 18.699219 L 116.75 33.699219 Z M 55.976562 167.003906 L 116.75 78.234375 L 116.75 167.003906 Z M 186.257812 241 L 25.058594 241 L 20.476562 210.785156 L 233.78125 210.785156 C 225.519531 228.925781 207.035156 241 186.257812 241 Z M 186.257812 241 "/>
</g>
</svg>
