
<svg xmlns="http://www.w3.org/2000/svg" xmlns:xlink="http://www.w3.org/1999/xlink" width="256pt" height="256pt" viewBox="0 0 256 256" version="1.1">
<g>
<path style=" stroke:none;fill-rule:nonzero;fill:rgb(0%,0%,0%);fill-opacity:1;" d="M 190.574219 181 L 177.371094 181 L 167.132812 162.945312 C 171.980469 157.410156 175.59375 151.050781 177.835938 144.226562 C 182.792969 147.851562 188.898438 150 195.5 150 C 212.042969 150 225.5 136.542969 225.5 120 C 225.5 114.6875 224.097656 109.527344 221.484375 105 C 224.097656 100.472656 225.5 95.3125 225.5 90 C 225.5 79.023438 219.492188 69.105469 210.253906 63.871094 C 212.410156 47.15625 200.453125 32.285156 184.289062 30.238281 C 171.847656 11.480469 150.664062 0 128 0 C 105.335938 0 84.152344 11.480469 71.710938 30.238281 C 55.570312 32.285156 43.589844 47.128906 45.746094 63.875 C 36.507812 69.105469 30.5 79.023438 30.5 90 C 30.5 95.3125 31.902344 100.472656 34.515625 105 C 31.902344 109.527344 30.5 114.6875 30.5 120 C 30.5 136.542969 43.957031 150 60.5 150 C 67.101562 150 73.207031 147.851562 78.164062 144.226562 C 80.40625 151.050781 84.019531 157.410156 88.867188 162.945312 L 78.628906 181 L 64.445312 181 C 40.023438 181 15.5 209.925781 15.5 242.515625 L 15.5 248.5 C 15.5 252.640625 18.859375 256 23 256 C 24.136719 256 230.140625 256 233 256 C 237.140625 256 240.5 252.640625 240.5 248.5 L 240.5 243.351562 C 240.5 215.179688 218.933594 181 190.574219 181 Z M 135.5 15.546875 C 151.285156 17.839844 165.414062 27.273438 173.515625 41.3125 L 173.601562 41.464844 C 175.277344 44.378906 178.617188 45.746094 181.730469 45.050781 C 189.429688 45.679688 195.5 52.144531 195.5 60 C 195.5 61.910156 195.148438 63.769531 194.453125 65.523438 C 192.804688 69.683594 195.144531 74.351562 199.453125 75.523438 C 210.160156 78.4375 214.113281 91.695312 206.683594 99.996094 C 204.132812 102.84375 204.132812 107.152344 206.683594 110 C 215.277344 119.609375 208.457031 135 195.5 135 C 182.554688 135 175.710938 119.617188 184.316406 110 C 186.867188 107.152344 186.867188 102.847656 184.316406 100 C 180.476562 95.707031 179.492188 89.660156 181.546875 84.476562 C 183.195312 80.316406 180.855469 75.648438 176.546875 74.476562 C 172.117188 73.269531 168.414062 70.011719 166.644531 65.757812 C 165.734375 63.578125 163.847656 61.949219 161.558594 61.371094 C 153.277344 59.277344 144.117188 59.511719 135.5 62.558594 Z M 132.503906 80.992188 C 137.722656 77.074219 143.949219 75 150.5 75 C 151.90625 75 153.304688 75.097656 154.691406 75.289062 C 157.324219 79.710938 161.074219 83.390625 165.5 85.960938 L 165.5 127.5 C 165.5 148.367188 148.328125 166 128 166 C 107.671875 166 90.5 148.367188 90.5 127.5 L 90.5 85.960938 C 94.925781 83.390625 98.675781 79.710938 101.308594 75.289062 C 102.691406 75.097656 104.09375 75 105.5 75 C 112.050781 75 118.273438 77.074219 123.496094 80.992188 C 126.164062 82.996094 129.835938 83 132.503906 80.992188 Z M 163.929688 187.703125 C 157.980469 194.222656 150.515625 198.910156 142.234375 201.410156 C 142.121094 201.445312 142.007812 201.472656 141.890625 201.511719 C 145.777344 192.597656 151.351562 184.597656 158.363281 177.890625 Z M 136.664062 180.261719 C 133.269531 185.121094 130.367188 190.328125 128 195.820312 C 125.632812 190.328125 122.730469 185.121094 119.335938 180.261719 C 122.175781 180.75 125.070312 181 128 181 C 130.929688 181 133.824219 180.75 136.664062 180.261719 Z M 114.105469 201.511719 C 113.992188 201.472656 113.878906 201.445312 113.765625 201.410156 C 105.484375 198.910156 98.019531 194.222656 92.070312 187.703125 L 97.636719 177.890625 C 104.648438 184.597656 110.222656 192.597656 114.105469 201.511719 Z M 79.453125 74.476562 C 75.144531 75.648438 72.804688 80.316406 74.453125 84.476562 C 76.476562 89.578125 75.582031 95.644531 71.683594 99.996094 C 69.132812 102.84375 69.132812 107.152344 71.683594 110 C 80.277344 119.609375 73.457031 135 60.5 135 C 47.554688 135 40.710938 119.617188 49.316406 110.003906 C 51.867188 107.15625 51.867188 102.847656 49.316406 100 C 41.890625 91.699219 45.839844 78.441406 56.546875 75.523438 C 60.855469 74.351562 63.195312 69.683594 61.546875 65.523438 C 60.851562 63.769531 60.5 61.910156 60.5 60 C 60.5 52.144531 66.570312 45.679688 74.269531 45.050781 C 77.382812 45.742188 80.71875 44.382812 82.394531 41.46875 L 82.523438 41.246094 C 82.523438 41.246094 82.527344 41.242188 82.527344 41.242188 C 90.632812 27.238281 104.742188 17.835938 120.5 15.546875 L 120.5 62.554688 C 112.300781 59.65625 103.152344 59.167969 94.441406 61.371094 C 92.152344 61.949219 90.265625 63.574219 89.355469 65.757812 C 87.585938 70.011719 83.886719 73.269531 79.453125 74.476562 Z M 92.648438 241 L 30.523438 241 C 31.253906 216.605469 49.472656 196 64.445312 196 L 79.390625 196 C 85.726562 203.492188 93.527344 209.289062 102.238281 213.125 Z M 135.5 241 L 135.5 233.5 C 135.5 229.359375 132.140625 226 128 226 C 123.859375 226 120.5 229.359375 120.5 233.5 L 120.5 241 L 108.511719 241 L 116.597656 217.496094 C 124.332031 218.875 132.191406 218.78125 139.402344 217.496094 L 147.488281 241 Z M 163.351562 241 L 153.761719 213.125 C 162.472656 209.289062 170.277344 203.492188 176.609375 196 L 190.574219 196 C 208.117188 196 224.292969 219.921875 225.4375 241 Z M 163.351562 241 "/>
</g>
</svg>
