
<svg xmlns="http://www.w3.org/2000/svg" xmlns:xlink="http://www.w3.org/1999/xlink" width="256pt" height="256pt" viewBox="0 0 256 256" version="1.1">
<g>
<path style=" stroke:none;fill-rule:nonzero;fill:rgb(0%,0%,0%);fill-opacity:1;" d="M 239.039062 113 L 213.65625 30.5 L 241 30.5 L 241 15.5 C 231.445312 15.5 25.082031 15.5 15 15.5 L 15 30.5 L 42.34375 30.5 L 16.960938 113 L 0 113 L 0 120.5 C 0 149.449219 23.550781 173 52.5 173 C 81.449219 173 105 149.449219 105 120.5 L 105 113 L 88.039062 113 L 62.65625 30.5 L 120.5 30.5 L 120.5 195.5 L 83 195.5 L 83 225.5 L 68 225.5 L 68 240.5 L 188 240.5 L 188 225.5 L 173 225.5 L 173 195.5 L 135.5 195.5 L 135.5 30.5 L 193.34375 30.5 L 167.960938 113 L 151 113 L 151 120.5 C 151 149.449219 174.550781 173 203.5 173 C 232.449219 173 256 149.449219 256 120.5 L 256 113 Z M 52.5 158 C 34.390625 158 19.238281 145.09375 15.753906 128 L 89.246094 128 C 85.761719 145.09375 70.609375 158 52.5 158 Z M 32.65625 113 L 52.5 48.503906 L 72.34375 113 Z M 158 225.5 L 98 225.5 L 98 210.5 L 158 210.5 Z M 203.5 48.503906 L 223.34375 113 L 183.65625 113 Z M 203.5 158 C 185.390625 158 170.238281 145.09375 166.753906 128 L 240.246094 128 C 236.761719 145.09375 221.609375 158 203.5 158 Z M 203.5 158 "/>
</g>
</svg>
