
<svg xmlns="http://www.w3.org/2000/svg" xmlns:xlink="http://www.w3.org/1999/xlink" width="256pt" height="256pt" viewBox="0 0 256 256" version="1.1">
<g>
<path style=" stroke:none;fill-rule:nonzero;fill:rgb(0%,0%,0%);fill-opacity:1;" d="M 248.5 217.792969 L 242.363281 217.792969 L 242.363281 200.929688 C 242.363281 196.785156 239.003906 193.429688 234.863281 193.429688 L 230.242188 193.429688 L 230.242188 113.8125 L 230.59375 113.8125 C 234.734375 113.8125 238.09375 110.453125 238.09375 106.3125 L 238.09375 92.507812 L 248.5 92.507812 C 251.832031 92.507812 254.761719 90.3125 255.699219 87.113281 C 256.632812 83.917969 255.347656 80.488281 252.542969 78.691406 L 132.042969 1.539062 C 129.578125 -0.0390625 126.421875 -0.0390625 123.957031 1.539062 L 3.457031 78.691406 C 0.652344 80.488281 -0.632812 83.917969 0.300781 87.113281 C 1.238281 90.3125 4.171875 92.507812 7.5 92.507812 L 17.90625 92.507812 L 17.90625 106.3125 C 17.90625 110.453125 21.265625 113.8125 25.40625 113.8125 L 25.757812 113.8125 L 25.757812 193.425781 L 21.136719 193.425781 C 16.996094 193.425781 13.636719 196.785156 13.636719 200.925781 L 13.636719 217.792969 L 7.5 217.792969 C 3.359375 217.792969 0 221.148438 0 225.292969 L 0 248.144531 C 0 252.289062 3.359375 255.644531 7.5 255.644531 L 248.5 255.644531 C 252.640625 255.644531 256 252.289062 256 248.144531 L 256 225.292969 C 256 221.148438 252.640625 217.792969 248.5 217.792969 Z M 241 240.644531 L 15 240.644531 L 15 232.792969 L 241 232.792969 Z M 215.242188 193.425781 L 204.546875 193.425781 L 204.546875 113.8125 L 215.242188 113.8125 Z M 66.804688 113.8125 C 70.949219 113.8125 74.304688 110.453125 74.304688 106.3125 L 74.304688 92.507812 L 99.800781 92.507812 L 99.800781 106.3125 C 99.800781 110.453125 103.160156 113.8125 107.300781 113.8125 L 107.652344 113.8125 L 107.652344 193.425781 L 66.453125 193.425781 L 66.453125 113.8125 Z M 141.199219 98.8125 L 114.800781 98.8125 L 114.800781 92.507812 L 141.199219 92.507812 Z M 122.652344 113.8125 L 133.347656 113.8125 L 133.347656 193.425781 L 122.652344 193.425781 Z M 148.347656 113.8125 L 148.699219 113.8125 C 152.839844 113.8125 156.199219 110.453125 156.199219 106.3125 L 156.199219 92.507812 L 181.695312 92.507812 L 181.695312 106.3125 C 181.695312 110.453125 185.050781 113.8125 189.195312 113.8125 L 189.546875 113.8125 L 189.546875 193.425781 L 148.347656 193.425781 Z M 223.09375 98.8125 L 196.695312 98.8125 L 196.695312 92.507812 L 223.09375 92.507812 Z M 128 16.761719 L 222.878906 77.507812 L 33.125 77.507812 Z M 59.304688 92.507812 L 59.304688 98.8125 L 32.90625 98.8125 L 32.90625 92.507812 Z M 40.757812 113.8125 L 51.453125 113.8125 L 51.453125 193.425781 L 40.757812 193.425781 Z M 28.636719 208.425781 L 227.363281 208.425781 L 227.363281 217.792969 L 28.636719 217.792969 Z M 28.636719 208.425781 "/>
</g>
</svg>
