
<svg xmlns="http://www.w3.org/2000/svg" xmlns:xlink="http://www.w3.org/1999/xlink" width="256pt" height="256pt" viewBox="0 0 256 256" version="1.1">
<g>
<path style=" stroke:none;fill-rule:nonzero;fill:rgb(0%,0%,0%);fill-opacity:1;" d="M 168.601562 0 L 30.5 0 L 30.5 256 L 225.5 256 L 225.5 56.878906 C 222.8125 54.191406 170.339844 1.734375 168.601562 0 Z M 199.886719 52.492188 L 173 52.496094 L 173 25.597656 C 180.027344 32.625 187.683594 40.285156 199.886719 52.492188 Z M 56.171875 241 L 94.238281 203.132812 L 116.75 225.644531 L 173 169.394531 L 173 189 L 188 189 L 188 144 L 143 144 L 143 159 L 162.183594 159 L 116.75 204.433594 L 94.261719 181.945312 L 45.5 230.460938 L 45.5 15 L 158 15 L 158 67.503906 L 210.5 67.488281 L 210.5 241 Z M 56.171875 241 "/>
<path style=" stroke:none;fill-rule:nonzero;fill:rgb(0%,0%,0%);fill-opacity:1;" d="M 68 52.5 L 127.832031 52.5 L 127.832031 67.5 L 68 67.5 Z M 68 52.5 "/>
<path style=" stroke:none;fill-rule:nonzero;fill:rgb(0%,0%,0%);fill-opacity:1;" d="M 68 89.867188 L 127.832031 89.867188 L 127.832031 104.867188 L 68 104.867188 Z M 68 89.867188 "/>
</g>
</svg>
