
<svg xmlns="http://www.w3.org/2000/svg" xmlns:xlink="http://www.w3.org/1999/xlink" width="256pt" height="256pt" viewBox="0 0 256 256" version="1.1">
<g>
<path style=" stroke:none;fill-rule:nonzero;fill:rgb(0%,0%,0%);fill-opacity:1;" d="M 230.296875 106.058594 C 215.078125 90.839844 195.617188 82.390625 175.6875 80.699219 L 175.6875 0 L 0.0195312 0 L 0.0195312 256 L 168.1875 256 L 168.1875 255.957031 C 190.679688 255.957031 213.171875 247.398438 230.292969 230.273438 C 264.539062 196.027344 264.539062 140.304688 230.296875 106.058594 Z M 15.019531 15 L 160.6875 15 L 160.6875 39.949219 L 15.019531 39.949219 Z M 15.019531 55.210938 C 15.019531 55.210938 160.6875 55.210938 160.6875 55.210938 L 160.6875 80.15625 L 15.019531 80.15625 Z M 15.019531 95.15625 L 119.347656 95.15625 C 114.664062 98.292969 110.214844 101.925781 106.078125 106.058594 C 101.640625 110.5 97.78125 115.300781 94.492188 120.367188 L 15.019531 120.367188 Z M 15.019531 135.367188 L 86.710938 135.367188 C 83.457031 143.480469 81.464844 151.984375 80.726562 160.578125 L 15.019531 160.578125 Z M 15.019531 175.578125 L 80.710938 175.578125 C 81.433594 184.171875 83.410156 192.671875 86.640625 200.789062 L 15.019531 200.789062 Z M 15.019531 241 L 15.019531 215.789062 L 94.382812 215.789062 C 97.695312 220.921875 101.589844 225.785156 106.078125 230.273438 C 110.136719 234.332031 114.5 237.902344 119.089844 241 Z M 219.6875 219.667969 C 191.289062 248.066406 145.085938 248.066406 116.6875 219.667969 C 88.289062 191.269531 88.289062 145.0625 116.6875 116.664062 C 145.085938 88.269531 191.289062 88.269531 219.6875 116.664062 C 248.085938 145.0625 248.085938 191.269531 219.6875 219.667969 Z M 219.6875 219.667969 "/>
<path style=" stroke:none;fill-rule:nonzero;fill:rgb(0%,0%,0%);fill-opacity:1;" d="M 174.542969 161.105469 C 164.960938 158.484375 159.613281 157.171875 159.613281 152.328125 C 159.613281 148.394531 162.738281 146.378906 168.390625 146.378906 C 176.964844 146.378906 186.546875 152.128906 187.554688 153.238281 L 194.71875 139.519531 C 189.886719 136.636719 183.183594 133.519531 175.6875 132.246094 L 175.6875 118.015625 L 160.6875 118.015625 L 160.6875 132.617188 C 150.234375 135.183594 142.464844 142.832031 142.464844 154.953125 C 142.464844 165.746094 148.617188 170.6875 161.832031 174.722656 C 171.71875 177.75 179.082031 179.058594 179.082031 184.40625 C 179.082031 187.835938 176.257812 189.753906 170.304688 189.753906 C 159.308594 189.753906 148.011719 182.792969 146.703125 181.382812 L 139.4375 195.804688 C 145.453125 199.742188 153.039062 202.554688 160.6875 203.859375 L 160.6875 218.316406 L 175.6875 218.316406 L 175.6875 204.339844 C 187.210938 202.902344 196.9375 196.777344 196.9375 182.792969 C 196.9375 169.476562 188.261719 164.835938 174.542969 161.105469 Z M 174.542969 161.105469 "/>
</g>
</svg>
