
<svg xmlns="http://www.w3.org/2000/svg" xmlns:xlink="http://www.w3.org/1999/xlink" width="239pt" height="239pt" viewBox="0 0 239 239" version="1.1">
<g>
<path style=" stroke:none;fill-rule:nonzero;fill:rgb(0%,0%,0%);fill-opacity:1;" d="M 32.707031 239 C 14.703125 239 0 224.347656 0 206.292969 L 0 6.652344 C 0 3 3 0 6.652344 0 L 180.238281 0 C 183.886719 0 186.890625 3 186.890625 6.652344 L 186.890625 60.761719 L 232.347656 60.761719 C 236 60.761719 239 63.761719 239 67.414062 L 239 206.292969 C 239 224.296875 224.347656 239 206.292969 239 Z M 186.890625 206.292969 C 186.890625 216.996094 195.589844 225.695312 206.292969 225.695312 C 216.996094 225.695312 225.695312 216.996094 225.695312 206.292969 L 225.695312 74.066406 L 186.890625 74.066406 Z M 13.304688 206.292969 C 13.304688 216.996094 22.003906 225.695312 32.707031 225.695312 L 179.789062 225.695312 L 178.039062 222.648438 C 177.386719 221.546875 176.835938 220.394531 176.335938 219.195312 C 176.285156 219.097656 176.238281 219.046875 176.238281 218.945312 C 175.535156 217.195312 174.988281 215.394531 174.585938 213.542969 C 174.488281 213.09375 174.386719 212.644531 174.285156 212.144531 C 173.886719 210.195312 173.6875 208.195312 173.6875 206.242188 L 173.6875 13.304688 L 13.304688 13.304688 Z M 13.304688 206.292969 "/>
<path style=" stroke:none;fill-rule:nonzero;fill:rgb(0%,0%,0%);fill-opacity:1;" d="M 67.414062 56.710938 C 63.761719 56.710938 60.761719 53.710938 60.761719 50.058594 C 60.761719 46.410156 63.761719 43.410156 67.414062 43.410156 L 119.476562 43.410156 C 123.125 43.410156 126.125 46.410156 126.125 50.058594 C 126.125 53.710938 123.125 56.710938 119.476562 56.710938 Z M 67.414062 56.710938 "/>
<path style=" stroke:none;fill-rule:nonzero;fill:rgb(0%,0%,0%);fill-opacity:1;" d="M 41.359375 100.121094 C 37.707031 100.121094 34.707031 97.121094 34.707031 93.46875 C 34.707031 89.820312 37.707031 86.816406 41.359375 86.816406 L 145.53125 86.816406 C 149.179688 86.816406 152.183594 89.820312 152.183594 93.46875 C 152.183594 97.121094 149.179688 100.121094 145.53125 100.121094 Z M 41.359375 100.121094 "/>
<path style=" stroke:none;fill-rule:nonzero;fill:rgb(0%,0%,0%);fill-opacity:1;" d="M 41.359375 134.828125 C 37.707031 134.828125 34.707031 131.828125 34.707031 128.175781 C 34.707031 124.527344 37.707031 121.527344 41.359375 121.527344 L 145.53125 121.527344 C 149.179688 121.527344 152.183594 124.527344 152.183594 128.175781 C 152.183594 131.828125 149.179688 134.828125 145.53125 134.828125 Z M 41.359375 134.828125 "/>
<path style=" stroke:none;fill-rule:nonzero;fill:rgb(0%,0%,0%);fill-opacity:1;" d="M 41.359375 169.535156 C 37.707031 169.535156 34.707031 166.535156 34.707031 162.882812 C 34.707031 159.234375 37.707031 156.234375 41.359375 156.234375 L 145.53125 156.234375 C 149.179688 156.234375 152.183594 159.234375 152.183594 162.882812 C 152.183594 166.535156 149.179688 169.535156 145.53125 169.535156 Z M 41.359375 169.535156 "/>
<path style=" stroke:none;fill-rule:nonzero;fill:rgb(0%,0%,0%);fill-opacity:1;" d="M 41.359375 204.242188 C 37.707031 204.242188 34.707031 201.242188 34.707031 197.589844 C 34.707031 193.941406 37.707031 190.941406 41.359375 190.941406 L 145.53125 190.941406 C 149.179688 190.941406 152.183594 193.941406 152.183594 197.589844 C 152.183594 201.242188 149.179688 204.242188 145.53125 204.242188 Z M 41.359375 204.242188 "/>
</g>
</svg>
