
<svg xmlns="http://www.w3.org/2000/svg" xmlns:xlink="http://www.w3.org/1999/xlink" width="12pt" height="12pt" viewBox="0 0 12 12" version="1.1">
<g>
<path style=" stroke:none;fill-rule:nonzero;fill:rgb(0%,0%,0%);fill-opacity:1;" d="M 10 7.75 C 9.375 7.75 8.773438 7.648438 8.214844 7.464844 C 8.039062 7.410156 7.84375 7.449219 7.703125 7.585938 L 6.605469 8.683594 C 5.191406 7.964844 4.03125 6.808594 3.308594 5.394531 L 4.410156 4.289062 C 4.550781 4.15625 4.589844 3.960938 4.535156 3.785156 C 4.351562 3.226562 4.25 2.625 4.25 2 C 4.25 1.726562 4.023438 1.5 3.75 1.5 L 2 1.5 C 1.726562 1.5 1.5 1.726562 1.5 2 C 1.5 6.695312 5.304688 10.5 10 10.5 C 10.273438 10.5 10.5 10.273438 10.5 10 L 10.5 8.25 C 10.5 7.976562 10.273438 7.75 10 7.75 Z M 6 1.5 L 6 6.5 L 7.5 5 L 10.5 5 L 10.5 1.5 Z M 6 1.5 "/>
</g>
</svg>
