
<svg xmlns="http://www.w3.org/2000/svg" xmlns:xlink="http://www.w3.org/1999/xlink" width="256pt" height="256pt" viewBox="0 0 256 256" version="1.1">
<g>
<path style=" stroke:none;fill-rule:nonzero;fill:rgb(0%,0%,0%);fill-opacity:1;" d="M 250.953125 5.296875 C 244.871094 -0.785156 234.359375 -1.382812 220.550781 3.566406 C 211.050781 6.972656 201.089844 12.675781 196.324219 17.445312 L 158.050781 55.71875 L 32.058594 35.929688 L 0 67.988281 L 104.75 109.015625 L 71.117188 142.648438 L 23.382812 145.445312 L 0.492188 168.335938 L 52.296875 193.332031 L 37.785156 207.84375 L 48.402344 218.464844 L 62.898438 203.972656 L 87.917969 255.75 L 110.800781 232.867188 L 113.597656 185.132812 L 147.796875 150.933594 L 188.816406 255.664062 L 220.875 223.605469 L 201.089844 97.636719 L 238.804688 59.921875 C 243.570312 55.15625 249.277344 45.195312 252.683594 35.699219 C 257.632812 21.890625 257.035156 11.378906 250.953125 5.296875 Z M 26.851562 62.375 L 37.277344 51.953125 L 144.910156 68.859375 L 116.34375 97.425781 Z M 204.851562 218.386719 L 194.429688 228.8125 L 159.386719 139.34375 L 187.949219 110.78125 Z M 238.542969 30.632812 C 235.675781 38.636719 230.933594 46.558594 228.183594 49.304688 L 98.941406 178.550781 L 96.144531 226.285156 L 92.246094 230.183594 L 74.144531 192.726562 L 87.199219 179.667969 L 76.582031 169.050781 L 63.546875 182.082031 L 26.070312 164 L 29.960938 160.105469 L 77.699219 157.308594 L 206.945312 28.0625 C 209.691406 25.316406 217.613281 20.574219 225.617188 17.703125 C 234.707031 14.445312 239.527344 15.113281 240.332031 15.917969 C 241.136719 16.71875 241.800781 21.542969 238.542969 30.632812 Z M 238.542969 30.632812 "/>
</g>
</svg>
