
<svg xmlns="http://www.w3.org/2000/svg" xmlns:xlink="http://www.w3.org/1999/xlink" width="256pt" height="256pt" viewBox="0 0 256 256" version="1.1">
<g>
<path style=" stroke:none;fill-rule:nonzero;fill:rgb(0%,0%,0%);fill-opacity:1;" d="M 171.335938 49.863281 L 171.335938 14.664062 L 84.664062 14.664062 L 84.664062 49.863281 L 0 49.863281 L 0 130.878906 L 8.058594 133.03125 L 8.058594 241.335938 L 247.941406 241.335938 L 247.941406 133.03125 L 256 130.878906 L 256 49.863281 Z M 99.664062 29.664062 L 156.335938 29.664062 L 156.335938 49.863281 L 99.664062 49.863281 Z M 23.058594 226.335938 L 23.058594 137.03125 L 52.472656 144.875 C 69.265625 149.355469 86.539062 152.339844 103.917969 153.773438 L 103.917969 168.03125 L 152.082031 168.03125 L 152.082031 153.773438 C 169.460938 152.339844 186.734375 149.355469 203.527344 144.878906 L 232.941406 137.03125 L 232.941406 226.335938 Z M 118.917969 153.03125 L 118.917969 141.523438 L 137.082031 141.523438 L 137.082031 153.03125 Z M 241 119.355469 L 199.660156 130.382812 C 184.125 134.527344 168.15625 137.320312 152.082031 138.71875 L 152.082031 126.523438 L 103.917969 126.523438 L 103.917969 138.71875 C 87.84375 137.320312 71.875 134.527344 56.339844 130.382812 L 15 119.355469 L 15 64.863281 L 241 64.863281 Z M 241 119.355469 "/>
</g>
</svg>
