
<svg xmlns="http://www.w3.org/2000/svg" xmlns:xlink="http://www.w3.org/1999/xlink" width="256pt" height="256pt" viewBox="0 0 256 256" version="1.1">
<g>
<path style=" stroke:none;fill-rule:nonzero;fill:rgb(0%,0%,0%);fill-opacity:1;" d="M 128 0 C 57.257812 0 0 57.246094 0 128 C 0 198.742188 57.246094 256 128 256 C 198.742188 256 256 198.75 256 128 C 256 57.257812 198.75 0 128 0 Z M 240.746094 120.5 L 135.5 120.5 L 135.5 15.253906 C 191.84375 18.964844 237.035156 64.15625 240.746094 120.5 Z M 120.5 109.894531 L 53.617188 43.011719 C 71.742188 27.125 94.976562 16.9375 120.5 15.253906 Z M 128 241 C 65.691406 241 15 190.308594 15 128 C 15 99.539062 25.582031 73.507812 43.011719 53.617188 L 124.894531 135.5 L 240.746094 135.5 C 236.871094 194.324219 187.789062 241 128 241 Z M 128 241 "/>
</g>
</svg>
