
<svg xmlns="http://www.w3.org/2000/svg" xmlns:xlink="http://www.w3.org/1999/xlink" width="256pt" height="256pt" viewBox="0 0 256 256" version="1.1">
<g>
<path style=" stroke:none;fill-rule:nonzero;fill:rgb(0%,0%,0%);fill-opacity:1;" d="M 255.960938 120.542969 L 240.242188 120.542969 C 236.796875 64.035156 191.714844 19.003906 135.496094 15.328125 L 135.496094 0.0820312 L 120.503906 0.0820312 L 120.503906 15.328125 C 95.769531 16.945312 72.585938 26.546875 53.953125 42.890625 L 34.175781 23.113281 L 34.175781 0 L 19.179688 0 L 19.179688 18.722656 L 0.0390625 18.722656 L 0.0390625 33.71875 L 23.574219 33.71875 L 43.351562 53.496094 C 26.898438 72.253906 17.277344 95.621094 15.757812 120.542969 L 0.0390625 120.542969 L 0.0390625 135.539062 L 15.816406 135.539062 C 19.707031 191.265625 64.324219 236.078125 120.503906 239.753906 L 120.503906 256 L 135.5 256 L 135.5 239.753906 C 191.355469 236.101562 236.269531 191.585938 240.183594 135.539062 L 255.960938 135.539062 Z M 225.214844 120.542969 L 202.648438 120.542969 C 199.335938 84.941406 171.03125 56.480469 135.496094 52.9375 L 135.496094 30.355469 C 183.445312 34.019531 221.792969 72.53125 225.214844 120.542969 Z M 128 187.523438 C 94.925781 187.523438 68.019531 160.613281 68.019531 127.539062 C 68.019531 113.699219 72.734375 100.941406 80.636719 90.78125 L 96.738281 106.882812 C 92.808594 112.808594 90.511719 119.910156 90.511719 127.539062 C 90.511719 148.210938 107.328125 165.027344 128 165.027344 C 148.671875 165.027344 165.488281 148.210938 165.488281 127.539062 C 165.488281 106.871094 148.671875 90.050781 128 90.050781 C 120.371094 90.050781 113.269531 92.347656 107.339844 96.277344 L 91.242188 80.175781 C 101.402344 72.273438 114.160156 67.558594 128 67.558594 C 161.074219 67.558594 187.980469 94.464844 187.980469 127.539062 C 187.980469 160.613281 161.074219 187.523438 128 187.523438 Z M 122.699219 132.84375 L 133.300781 122.238281 L 118.308594 107.246094 C 133.15625 100.128906 150.492188 111.007812 150.492188 127.539062 C 150.492188 139.945312 140.402344 150.035156 128 150.035156 C 111.460938 150.035156 100.589844 132.691406 107.707031 117.847656 Z M 120.503906 30.355469 L 120.503906 52.9375 C 105.445312 54.441406 91.6875 60.414062 80.574219 69.511719 L 64.617188 53.554688 C 79.894531 40.453125 99.253906 31.980469 120.503906 30.355469 Z M 54.015625 64.160156 L 69.972656 80.117188 C 60.773438 91.347656 54.773438 105.289062 53.351562 120.542969 L 30.785156 120.542969 C 32.3125 99.097656 40.808594 79.554688 54.015625 64.160156 Z M 30.859375 135.539062 L 53.449219 135.539062 C 57.191406 170.671875 85.300781 198.632812 120.503906 202.144531 L 120.503906 224.722656 C 72.890625 221.085938 34.742188 183.082031 30.859375 135.539062 Z M 135.496094 224.722656 L 135.496094 202.144531 C 170.699219 198.632812 198.808594 170.671875 202.550781 135.539062 L 225.140625 135.539062 C 221.257812 183.082031 183.109375 221.085938 135.496094 224.722656 Z M 135.496094 224.722656 "/>
</g>
</svg>
