
<svg xmlns="http://www.w3.org/2000/svg" xmlns:xlink="http://www.w3.org/1999/xlink" width="122pt" height="122pt" viewBox="0 0 122 122" version="1.1">
<g>
<path style=" stroke:none;fill-rule:nonzero;fill:rgb(0%,0%,0%);fill-opacity:1;" d="M 81.667969 43.265625 L 54.496094 68.523438 C 53.542969 69.410156 52.925781 70.601562 52.75 71.894531 L 51.828125 78.75 C 51.703125 79.664062 50.414062 79.757812 50.164062 78.871094 L 46.605469 66.363281 C 46.199219 64.9375 46.789062 63.414062 48.054688 62.632812 L 80.976562 42.355469 C 81.566406 41.992188 82.175781 42.792969 81.667969 43.265625 Z M 122 0 L 122 122 L 0 122 L 0 0 Z M 94.851562 29.3125 L 25.71875 55.980469 C 24.015625 56.636719 24.027344 59.054688 25.738281 59.691406 L 42.582031 65.980469 L 49.101562 86.949219 C 49.519531 88.292969 51.164062 88.785156 52.253906 87.898438 L 61.644531 80.242188 C 62.628906 79.441406 64.027344 79.402344 65.054688 80.148438 L 81.992188 92.445312 C 83.160156 93.292969 84.8125 92.652344 85.105469 91.242188 L 97.507812 31.566406 C 97.828125 30.027344 96.316406 28.746094 94.851562 29.3125 Z M 94.851562 29.3125 "/>
</g>
</svg>
