
<svg xmlns="http://www.w3.org/2000/svg" xmlns:xlink="http://www.w3.org/1999/xlink" width="228pt" height="228pt" viewBox="0 0 228 228" version="1.1">
<g>
<path style=" stroke:none;fill-rule:evenodd;fill:rgb(0%,0%,0%);fill-opacity:1;" d="M 0 0 L 0 228 L 228 228 L 228 0 Z M 188.371094 169.050781 C 182.183594 187.449219 167.054688 195.066406 149.140625 187.769531 C 123.339844 177.261719 101.101562 163.121094 82.894531 144.917969 C 64.691406 126.710938 50.550781 104.472656 40.042969 78.671875 C 32.746094 60.757812 40.363281 45.628906 58.761719 39.441406 C 62.0625 38.328125 65.296875 38.253906 68.542969 39.449219 C 76.390625 42.332031 96.257812 69.679688 96.703125 77.863281 C 97.042969 84.136719 92.78125 87.535156 88.546875 90.40625 C 80.554688 95.839844 80.507812 102.722656 83.925781 110.402344 C 87.363281 118.128906 91.773438 124.886719 97.347656 130.464844 C 102.925781 136.039062 109.683594 140.449219 117.410156 143.886719 C 125.089844 147.304688 131.972656 147.257812 137.40625 139.265625 C 140.277344 135.03125 143.675781 130.769531 149.953125 131.109375 C 158.132812 131.554688 185.480469 151.421875 188.367188 159.269531 C 189.558594 162.515625 189.484375 165.75 188.371094 169.050781 Z M 162.523438 98.273438 C 161.832031 90.324219 158.136719 82.628906 152.109375 76.601562 C 145.804688 70.296875 137.621094 66.417969 129.0625 65.675781 C 126.710938 65.472656 124.347656 65.515625 122.050781 65.808594 C 119.175781 66.175781 116.53125 64.140625 116.164062 61.257812 C 115.796875 58.375 117.832031 55.742188 120.714844 55.371094 C 123.757812 54.984375 126.871094 54.921875 129.972656 55.191406 C 140.996094 56.148438 151.496094 61.109375 159.550781 69.160156 C 167.324219 76.9375 172.105469 86.953125 173.007812 97.363281 C 173.257812 100.253906 173.203125 103.160156 172.839844 106.007812 C 172.5 108.664062 170.238281 110.605469 167.628906 110.605469 C 167.40625 110.605469 167.183594 110.59375 166.957031 110.5625 C 164.074219 110.199219 162.035156 107.5625 162.402344 104.679688 C 162.667969 102.574219 162.710938 100.417969 162.523438 98.273438 Z M 145.050781 99.785156 C 144.335938 91.527344 136.320312 83.910156 127.550781 83.148438 C 126.851562 83.085938 126.15625 83.070312 125.484375 83.097656 C 122.585938 83.214844 120.132812 80.960938 120.011719 78.058594 C 119.890625 75.15625 122.148438 72.703125 125.054688 72.585938 C 126.167969 72.539062 127.316406 72.566406 128.457031 72.664062 C 142.472656 73.878906 154.367188 85.394531 155.535156 98.878906 C 155.640625 100.109375 155.652344 101.347656 155.570312 102.550781 C 155.382812 105.328125 153.070312 107.453125 150.328125 107.453125 C 150.207031 107.453125 150.085938 107.449219 149.964844 107.441406 C 147.066406 107.242188 144.875 104.734375 145.074219 101.835938 C 145.117188 101.167969 145.109375 100.480469 145.050781 99.785156 Z M 189.847656 110.828125 C 189.402344 113.382812 187.179688 115.1875 184.671875 115.1875 C 184.371094 115.1875 184.070312 115.164062 183.765625 115.109375 C 180.902344 114.613281 178.984375 111.890625 179.480469 109.027344 C 180.179688 105.003906 180.351562 100.875 179.996094 96.757812 C 178.949219 84.703125 173.449219 73.140625 164.507812 64.199219 C 155.292969 54.980469 143.242188 49.300781 130.578125 48.203125 C 126.46875 47.84375 122.351562 47.988281 118.339844 48.625 C 115.46875 49.078125 112.773438 47.121094 112.320312 44.253906 C 111.863281 41.382812 113.824219 38.6875 116.691406 38.230469 C 121.546875 37.460938 126.523438 37.289062 131.488281 37.71875 C 146.613281 39.03125 160.984375 45.792969 171.949219 56.757812 C 182.640625 67.449219 189.21875 81.332031 190.480469 95.847656 C 190.914062 100.871094 190.703125 105.910156 189.847656 110.828125 Z M 189.847656 110.828125 "/>
</g>
</svg>
