
<svg xmlns="http://www.w3.org/2000/svg" xmlns:xlink="http://www.w3.org/1999/xlink" width="228pt" height="228pt" viewBox="0 0 228 228" version="1.1">
<g>
<path style=" stroke:none;fill-rule:nonzero;fill:rgb(0%,0%,0%);fill-opacity:1;" d="M 114.101562 47.6875 C 77.644531 47.6875 47.980469 77.351562 47.980469 113.8125 C 47.980469 126.515625 51.589844 138.851562 58.421875 149.488281 L 60.0625 152.042969 L 53.632812 174.886719 L 77.265625 168.800781 L 79.703125 170.289062 C 90.035156 176.597656 101.929688 179.933594 114.101562 179.933594 C 150.5625 179.933594 180.226562 150.269531 180.226562 113.8125 C 180.226562 77.351562 150.5625 47.6875 114.101562 47.6875 Z M 154.648438 134.132812 L 153.824219 137.988281 C 152.894531 142.335938 150.3125 146.179688 146.566406 148.574219 C 141.835938 151.601562 135.707031 153.085938 127.914062 150.882812 C 103.734375 144.046875 90.058594 128.035156 82.722656 118.03125 C 75.382812 108.023438 72.550781 98.019531 74.382812 89.847656 C 75.613281 84.367188 79.621094 80.164062 82.125 77.988281 C 83.351562 76.921875 84.945312 76.378906 86.566406 76.46875 L 91.734375 76.75 C 92.75 76.804688 93.648438 77.433594 94.050781 78.371094 L 101.574219 95.980469 C 101.976562 96.921875 101.808594 98.007812 101.140625 98.785156 L 94.585938 106.363281 C 94.054688 106.976562 93.964844 107.851562 94.339844 108.574219 C 102.96875 125.195312 118.695312 131.78125 123.386719 133.433594 C 124.1875 133.710938 125.074219 133.445312 125.59375 132.773438 L 132.449219 123.886719 C 133.210938 122.898438 134.554688 122.570312 135.6875 123.09375 L 153.152344 131.140625 C 154.289062 131.667969 154.910156 132.910156 154.648438 134.132812 Z M 154.648438 134.132812 "/>
<path style=" stroke:none;fill-rule:nonzero;fill:rgb(0%,0%,0%);fill-opacity:1;" d="M 0 0 L 0 228 L 228 228 L 228 0 Z M 114.101562 193.441406 C 100.421875 193.441406 87.023438 189.941406 75.171875 183.289062 L 34.265625 193.820312 L 45.433594 154.152344 C 38.253906 141.953125 34.472656 128.070312 34.472656 113.8125 C 34.472656 69.902344 70.195312 34.179688 114.101562 34.179688 C 158.011719 34.179688 193.734375 69.902344 193.734375 113.8125 C 193.734375 157.71875 158.011719 193.441406 114.101562 193.441406 Z M 114.101562 193.441406 "/>
</g>
</svg>
